<?xml version="1.0" encoding="utf-8"?>
<!-- Generator: Adobe Illustrator 26.0.3, SVG Export Plug-In . SVG Version: 6.00 Build 0)  -->
<svg version="1.1" id="Camada_1" xmlns="http://www.w3.org/2000/svg" xmlns:xlink="http://www.w3.org/1999/xlink" x="0px" y="0px"
	 viewBox="0 0 250 250" style="enable-background:new 0 0 250 250;" xml:space="preserve">
<style type="text/css">
	.st0{fill:#FFFFFF;}
</style>
<path class="st0" d="M155.4,156.2c7.3,11.9,15.3,23.3,32.2,23.3c14.2,0,21.6-7,21.6-16.8c0-11.7-7.7-15.8-23.3-22.6l-8.5-3.6
	c-24.7-10.5-41.1-23.6-41.1-51.3c0-25.5,19.5-44.9,50.1-44.9c21.7,0,37.4,7.5,48.6,27.2l-26.6,17c-5.9-10.5-12.2-14.6-22-14.6
	c-10,0-16.4,6.3-16.4,14.6c0,10.2,6.4,14.3,21,20.7l8.5,3.6c29.1,12.4,45.5,25,45.5,53.4c0,30.6-24.2,47.4-56.6,47.4
	c-31.8,0-49.8-15.9-59.8-35.7L155.4,156.2z M32.7,157.1c5.4,9.6,13.5,17,25.2,17c11.2,0,17.7-4.4,17.7-21.6V40.3h35.3v117.5
	c0,35.7-20.7,51.9-50.9,51.9c-27.3,0-47-18.5-55-35.7L32.7,157.1z"/>
</svg>
