<?xml version="1.0" encoding="utf-8"?>
<!-- Generator: Adobe Illustrator 26.0.3, SVG Export Plug-In . SVG Version: 6.00 Build 0)  -->
<svg version="1.1" xmlns="http://www.w3.org/2000/svg" xmlns:xlink="http://www.w3.org/1999/xlink" x="0px" y="0px"
	 viewBox="0 0 1080 1080" style="enable-background:new 0 0 1080 1080;" xml:space="preserve">
<style type="text/css">
	.st0{fill:url(#SVGID_1_);}
	.st1{fill:url(#SVGID_00000056424372425187530930000001479483627708418456_);}
	.st2{fill:#171717;}
	.st3{fill:#EFEFF8;}
	.st4{fill:url(#SVGID_00000042701575470338824420000005959148194473007505_);}
	.st5{fill:url(#SVGID_00000013882052967887890450000010910364595373630084_);}
	.st6{fill:url(#SVGID_00000161624168682956384090000015047451772608605080_);}
	.st7{fill:url(#SVGID_00000042709931586265387790000017062775961526930621_);}
	.st8{fill:#E8E8E8;}
	.st9{display:none;fill:#E8E8E8;}
	.st10{display:none;}
	.st11{display:inline;fill:#FEFEFE;}
	.st12{display:none;fill:#B51918;}
	.st13{fill:#EEEEF7;}
</style>
<g id="Camada_1">
	<g id="_x31__00000150090863685269688670000011493178806946414773_">
		
			<linearGradient id="SVGID_1_" gradientUnits="userSpaceOnUse" x1="392.6942" y1="-43.029" x2="938.5007" y2="886.0035" gradientTransform="matrix(1 0 0 -1 0 1082)">
			<stop  offset="0" style="stop-color:#FFC627"/>
			<stop  offset="1" style="stop-color:#FF459A"/>
		</linearGradient>
		<path class="st0" d="M876,36.2L708,204v280L540,680h-28l-28,28v336h56l392-452.6V36L876,36.2z"/>
		
			<linearGradient id="SVGID_00000091007272936936766260000013520898968460552627_" gradientUnits="userSpaceOnUse" x1="144.9545" y1="102.5183" x2="690.761" y2="1031.5507" gradientTransform="matrix(1 0 0 -1 0 1082)">
			<stop  offset="0" style="stop-color:#FFC627"/>
			<stop  offset="1" style="stop-color:#FF459A"/>
		</linearGradient>
		<path style="fill:url(#SVGID_00000091007272936936766260000013520898968460552627_);" d="M372,1044L148,764V428h56l168,252h28
			l28,28v336H372z"/>
	</g>
</g>
<g id="Camada_2">
	<g id="Camada_3">
		<rect x="3599.1" y="896" class="st2" width="1080" height="1080"/>
		<g id="_x31__00000139270711614873355840000014537490577410328704_">
			<path class="st3" d="M5497-255.8L5329-88v280l-168,196h-28l-28,28v336h56l392-452.6V-256L5497-255.8z"/>
			<path class="st3" d="M4993,752l-224-280V136h56l168,252h28l28,28v336H4993z"/>
		</g>
		<g id="_x31__00000133506010803900314890000001409638405008207495_">
			
				<linearGradient id="SVGID_00000141425915398992764900000012345531567709016235_" gradientUnits="userSpaceOnUse" x1="2778.8005" y1="1280.152" x2="3324.6072" y2="2209.1841" gradientTransform="matrix(1 0 0 -1 0 1082)">
				<stop  offset="5.586592e-03" style="stop-color:#733BE0"/>
				<stop  offset="1" style="stop-color:#FF459A"/>
			</linearGradient>
			<path style="fill:url(#SVGID_00000141425915398992764900000012345531567709016235_);" d="M3262.1-1287l-168,167.8v280l-168,196
				h-28l-28,28v336h56l392-452.6v-555.4L3262.1-1287z"/>
			
				<linearGradient id="SVGID_00000096042582018131191820000015581493701095465378_" gradientUnits="userSpaceOnUse" x1="2531.0608" y1="1425.6991" x2="3076.8674" y2="2354.7314" gradientTransform="matrix(1 0 0 -1 0 1082)">
				<stop  offset="5.586592e-03" style="stop-color:#733BE0"/>
				<stop  offset="1" style="stop-color:#FF459A"/>
			</linearGradient>
			<path style="fill:url(#SVGID_00000096042582018131191820000015581493701095465378_);" d="M2758.1-279.2l-224-280v-336h56l168,252
				h28l28,28v336H2758.1L2758.1-279.2z"/>
		</g>
		<g id="_x31__00000147208927950966127510000008673722464630242490_">
			
				<linearGradient id="SVGID_00000127045449359128328430000003671973139218200229_" gradientUnits="userSpaceOnUse" x1="3991.7922" y1="1347.5376" x2="4537.5986" y2="2276.5698" gradientTransform="matrix(1 0 0 -1 0 1082)">
				<stop  offset="5.586592e-03" style="stop-color:#FD029C"/>
				<stop  offset="1" style="stop-color:#00CCFF"/>
			</linearGradient>
			<path style="fill:url(#SVGID_00000127045449359128328430000003671973139218200229_);" d="M4475.1-1354.4l-168,167.8v280l-168,196
				h-28l-28,28v336h56l392-452.6v-555.4L4475.1-1354.4z"/>
			
				<linearGradient id="SVGID_00000081615685919515146890000017906017154847798421_" gradientUnits="userSpaceOnUse" x1="3744.0525" y1="1493.0847" x2="4289.8589" y2="2422.1169" gradientTransform="matrix(1 0 0 -1 0 1082)">
				<stop  offset="5.586592e-03" style="stop-color:#FD029C"/>
				<stop  offset="1" style="stop-color:#00CCFF"/>
			</linearGradient>
			<path style="fill:url(#SVGID_00000081615685919515146890000017906017154847798421_);" d="M3971.1-346.6l-224-280v-336h56l168,252
				h28l28,28v336L3971.1-346.6L3971.1-346.6z"/>
		</g>
		<g id="_x31__00000117646146264222488900000006283032772128649096_">
			<path class="st8" d="M4306.7,1184.6l-83.8,83.7V1408l-83.8,97.8h-14l-14,14v167.7h28l195.6-225.8v-277.1H4306.7z"/>
			<path class="st8" d="M4055.3,1687.5l-111.8-139.7v-167.6h27.9l83.8,125.7h14l14,14v167.6H4055.3z"/>
		</g>
	</g>
	<g id="Background">
		<g>
			<rect x="2090.3" y="356" class="st2" width="1080" height="1080"/>
			<g id="_x33__00000127748803723013265490000015382611978663288242_">
				<g id="_x31__00000174581715163431827920000012997241642430135688_">
					<path class="st9" d="M2639.3,950l-72-90V752h18l64.8,81l7.2,9v108H2639.3z"/>
					<path class="st8" d="M2792.3,626.1l-54,53.9v90l-54,63h-9l-9,9v108h18l126-145.5V626L2792.3,626.1z"/>
					<path class="st8" d="M2630.3,950l-72-90V752h18l54,81h9l9,9v108H2630.3z"/>
				</g>
				<g class="st10">
					<path class="st11" d="M2655.1,950l-87.9-97V750.2h9.4l87.3,96.4V950H2655.1z"/>
					<path class="st11" d="M2800.3,607.9l-60.9,67.2v96.4l-52.7,58.2h-8.2l-9.4,10.3v110h9.4l131.8-145.5V607.9H2800.3z"/>
				</g>
				<path class="st12" d="M2648.5,950l-87.9-97V750.2h9.4l87.3,96.4V950H2648.5z"/>
			</g>
		</g>
	</g>
	<g id="_x31__00000161609849781131395360000011965769172277359802_">
		<path class="st13" d="M2753.9-2168.9l-149.2,149c-6,6-9.4,14.2-9.4,22.7v254.8c0,7.7-2.7,15.1-7.7,20.9L2437-1545.7
			c-6.1,7.1-15,11.2-24.4,11.2l0,0c-8.5,0-16.7,3.4-22.7,9.4l-9.3,9.3c-6,6-9.4,14.2-9.4,22.7v290.7c0,17.7,14.4,32.1,32.1,32.1h9.4
			c9.3,0,18.2-4,24.3-11.1l374.6-432.5c5.1-5.8,7.8-13.3,7.8-21v-511.3c0-17.7-14.4-32.1-32.1-32.1h-10.7
			C2768.1-2178.3,2760-2174.9,2753.9-2168.9z"/>
		<path class="st13" d="M2250.6-1181.4l-208.8-260.8c-4.2-5.2-6.5-11.8-6.5-18.5v-296c0-16.3,13.2-29.6,29.6-29.6h10.5
			c9.9,0,19.1,4.9,24.6,13.2l150.4,225.6c5.5,8.2,14.7,13.2,24.6,13.2l0,0c7.8,0,15.4,3.1,20.9,8.7l10.7,10.7
			c5.5,5.5,8.7,13.1,8.7,20.9v294.1c0,16.3-13.2,29.6-29.6,29.6h-12.2C2264.7-1170.3,2256.2-1174.4,2250.6-1181.4z"/>
	</g>
</g>
</svg>
