<?xml version="1.0" encoding="utf-8"?>
<!-- Generator: Adobe Illustrator 26.0.3, SVG Export Plug-In . SVG Version: 6.00 Build 0)  -->
<svg version="1.1" id="Camada_1" xmlns="http://www.w3.org/2000/svg" xmlns:xlink="http://www.w3.org/1999/xlink" x="0px" y="0px"
	 viewBox="0 0 1080 1080" style="enable-background:new 0 0 1080 1080;" xml:space="preserve">
<style type="text/css">
	.st0{display:none;}
	.st1{display:inline;fill:#171717;}
	.st2{display:inline;}
	.st3{display:none;fill:#E8E8E8;}
	.st4{fill:#E8E8E8;}
	.st5{display:inline;fill:#FEFEFE;}
	.st6{display:none;fill:#B51918;}
	.st7{fill:#171717;}
	.st8{fill:#EEEEF7;}
	.st9{fill:#FFFFFF;}
	.st10{fill:url(#SVGID_1_);}
	.st11{fill:url(#SVGID_00000022537464904849440110000002297110455830063511_);}
</style>
<g id="Background">
	<g class="st0">
		<rect y="1188" class="st1" width="1080" height="1080"/>
		<g id="_x33__00000127748803723013265490000015382611978663288242_" class="st2">
			<g id="_x31__00000174581715163431827920000012997241642430135688_">
				<path class="st3" d="M549,1782l-72-90v-108h18l64.8,81l7.2,9v108H549z"/>
				<path class="st4" d="M702,1458.1l-54,53.9v90l-54,63h-9l-9,9v108h18l126-145.5V1458L702,1458.1z"/>
				<path class="st4" d="M540,1782l-72-90v-108h18l54,81h9l9,9v108H540z"/>
			</g>
			<g class="st0">
				<path class="st5" d="M564.8,1782l-87.9-97v-102.8h9.4l87.3,96.4V1782H564.8z"/>
				<path class="st5" d="M710,1439.9l-60.9,67.2v96.4l-52.7,58.2h-8.2l-9.4,10.3v110h9.4L720,1636.5v-196.6H710z"/>
			</g>
			<path class="st6" d="M558.2,1782l-87.9-97v-102.8h9.4l87.3,96.4V1782H558.2z"/>
		</g>
	</g>
</g>
<g id="Camada_3">
	<path class="st7" d="M-1141.7,0h824c70.7,0,128,57.3,128,128v824c0,70.7-57.3,128-128,128h-824c-70.7,0-128-57.3-128-128V128
		C-1269.7,57.3-1212.4,0-1141.7,0z"/>
	<g id="_x31__00000161609849781131395360000011965769172277359802_">
		<path class="st8" d="M-495.3,184.9l-107.1,107c-4.3,4.3-6.8,10.2-6.8,16.3v182.9c0,5.5-2,10.8-5.5,15l-108.1,126.2
			c-4.4,5.1-10.8,8-17.5,8l0,0c-6.1,0-12,2.4-16.3,6.7l-6.6,6.6c-4.3,4.3-6.7,10.2-6.7,16.3v208.7c0,12.7,10.3,23,23,23h6.7
			c6.7,0,13-2.9,17.4-8l268.9-310.4c3.6-4.2,5.6-9.5,5.6-15.1V201.2c0-12.7-10.3-23-23-23h-7.7C-485.1,178.2-491,180.6-495.3,184.9z
			"/>
		<path class="st8" d="M-856.6,893.8l-149.9-187.2c-3-3.8-4.7-8.4-4.7-13.3V480.9c0-11.7,9.5-21.2,21.2-21.2h7.6
			c7.1,0,13.7,3.5,17.7,9.4l108,162c3.9,5.9,10.6,9.4,17.7,9.4l0,0c5.6,0,11,2.2,15,6.2l7.7,7.7c4,4,6.2,9.4,6.2,15v211.1
			c0,11.7-9.5,21.2-21.2,21.2h-8.7C-846.5,901.8-852.6,898.9-856.6,893.8z"/>
	</g>
</g>
<g id="Camada_3_00000045600349610043186700000001927730853667089328_">
	<path class="st9" d="M128-0.1h824c70.7,0,128,57.3,128,128v824c0,70.7-57.3,128-128,128H128c-70.7,0-128-57.3-128-128v-824
		C0,57.2,57.3-0.1,128-0.1z"/>
</g>
<g id="Camada_2_00000153682094331596122960000012858509133965788602_">
	<g id="_x33_">
		<g class="st0">
			<path class="st5" d="M533,1935l-136.4-150.6v-159.6h14.5l135.5,149.6V1935H533z"/>
			<path class="st5" d="M758.5,1404L664,1508.4V1658l-81.9,90.4h-12.7l-14.5,16V1935h14.5L774,1709.2V1404H758.5z"/>
		</g>
		<path class="st6" d="M522.9,1935l-136.4-150.6v-159.6H401l135.5,149.6V1935H522.9z"/>
	</g>
</g>
<g id="_x31__00000150090863685269688670000011493178806946414773_">
	
		<linearGradient id="SVGID_1_" gradientUnits="userSpaceOnUse" x1="434.2367" y1="121.9582" x2="826.1174" y2="788.9892" gradientTransform="matrix(1 0 0 -1 0 1082)">
		<stop  offset="0" style="stop-color:#FFC627"/>
		<stop  offset="1" style="stop-color:#FF459A"/>
	</linearGradient>
	<path class="st10" d="M781.2,178.3L660.6,298.8v201L540,640.5h-20.1l-20.1,20.1v241.2H540l281.5-325V178.1L781.2,178.3z"/>
	
		<linearGradient id="SVGID_00000116193529749294152840000007759076158363955897_" gradientUnits="userSpaceOnUse" x1="256.3634" y1="226.4589" x2="648.2441" y2="893.4899" gradientTransform="matrix(1 0 0 -1 0 1082)">
		<stop  offset="0" style="stop-color:#FFC627"/>
		<stop  offset="1" style="stop-color:#FF459A"/>
	</linearGradient>
	<path style="fill:url(#SVGID_00000116193529749294152840000007759076158363955897_);" d="M419.4,901.9l-160.8-201V459.6h40.2
		l120.6,180.9h20.1l20.1,20.1v241.2H419.4z"/>
</g>
</svg>
