<?xml version="1.0" encoding="utf-8"?>
<!-- Generator: Adobe Illustrator 26.0.3, SVG Export Plug-In . SVG Version: 6.00 Build 0)  -->
<svg version="1.1" id="Camada_1" xmlns="http://www.w3.org/2000/svg" xmlns:xlink="http://www.w3.org/1999/xlink" x="0px" y="0px"
	 viewBox="0 0 250 250" style="enable-background:new 0 0 250 250;" xml:space="preserve">
<style type="text/css">
	.st0{fill:#FFFFFF;}
</style>
<path class="st0" d="M125,177c-67.3,0-120-23-120-52.2s52.7-52.2,120-52.2s120,23,120,52.2S192.3,177,125,177z M125,83.1
	c-65.7,0-109.6,21.4-109.6,41.7s43.8,41.7,109.6,41.7s109.6-21.4,109.6-41.7S190.7,83.1,125,83.1z"/>
<path class="st0" d="M78.6,232.3c-5.2,0-9.4-1-13.6-3.7c-25.6-14.6-18.8-71.5,14.6-129.9l0,0c15.7-27.1,35-50.1,53.7-64.7
	c20.3-15.7,38.6-20.3,51.1-13c13,7.3,17.7,25.6,14.6,51.1c-3.1,24-13.6,52.2-29.2,79.3s-35,50.1-53.7,64.7
	C102.6,226.6,89.5,232.3,78.6,232.3z M171.4,27.8c-8.3,0-19.3,4.7-31.3,14.1c-17.7,14.1-36,36-51.1,62.1l0,0
	c-32.9,56.9-36,105.9-18.8,115.8c8.9,5.2,23.5,0.5,39.7-12c17.7-14.1,36-36,51.1-62.1c15.1-26.1,25-52.7,28.2-75.1
	c2.6-20.9-0.5-35.5-9.4-40.7C177.2,28.9,174.6,27.8,171.4,27.8z"/>
<path class="st0" d="M172,232.3c-26.1,0-63.7-31.8-91.8-81.4C46.2,92.5,39.4,35.6,65,21l0,0c25.6-14.6,71.5,19.3,105.4,77.7
	c15.7,27.1,26.1,55.3,29.2,79.3c3.7,25.6-1.6,43.3-14.6,51.1C180.8,231.3,176.7,232.3,172,232.3z M70.2,29.9
	C53,39.8,56.1,88.9,89,145.7s73.6,84,90.8,74.1c8.9-5.2,12-19.8,9.4-40.7c-3.1-22.4-13-49-28.2-75.1C128.1,47.1,87.4,20,70.2,29.9
	L70.2,29.9z"/>
<circle class="st0" cx="125" cy="124.9" r="20.9"/>
</svg>
