<?xml version="1.0" encoding="utf-8"?>
<!-- Generator: Adobe Illustrator 26.0.3, SVG Export Plug-In . SVG Version: 6.00 Build 0)  -->
<svg version="1.1" id="Camada_1" xmlns="http://www.w3.org/2000/svg" xmlns:xlink="http://www.w3.org/1999/xlink" x="0px" y="0px"
	 viewBox="0 0 250 250" style="enable-background:new 0 0 250 250;" xml:space="preserve">
<style type="text/css">
	.st0{fill:#FFFFFF;}
</style>
<polygon class="st0" points="128.4,41.3 5,41.3 5,71.6 49.3,71.6 49.3,208.7 84.3,208.7 84.3,71.6 128.4,71.6 "/>
<path class="st0" d="M237.3,79.3c0,0-16.6-11.1-35.4-11.1s-25.6,8.9-25.6,18.5c0,24.6,68.7,22.2,68.7,71.8
	c0,76.4-104.7,42.5-104.7,42.5v-36.6c0,0,20,15.1,44,15.1s23.1-15.7,23.1-17.9c0-22.8-68.1-22.8-68.1-73.3
	c0-68.7,99.2-41.6,99.2-41.6L237.3,79.3z"/>
</svg>
